<svg width="793" height="144" viewBox="0 0 793 144" fill="none" xmlns="http://www.w3.org/2000/svg">
<mask id="mask0_410_13519" style="mask-type:luminance" maskUnits="userSpaceOnUse" x="0" y="0" width="793" height="144">
<path d="M793 0.595703H0V144.001H793V0.595703Z" fill="white"/>
</mask>
<g mask="url(#mask0_410_13519)">
<path d="M383.025 102.308C373.182 114.524 358.45 121.893 338.631 121.893C307.12 121.893 285.254 101.113 285.254 73.2951V71.3697C285.254 61.411 288.095 52.249 293.247 44.614C293.578 44.0829 293.908 43.6182 294.304 43.1534C297.607 38.7052 301.703 34.7881 306.46 31.5349C306.658 31.4022 306.79 31.2694 306.988 31.203C312.009 27.9498 317.756 25.427 324.098 23.9C324.428 23.8336 324.759 23.7672 325.089 23.6344C329.581 22.6385 334.337 22.041 339.292 21.9746C339.556 21.9746 339.887 21.9746 340.151 21.9746H340.415C359.705 22.041 374.371 29.8752 382.694 41.3609C381.505 42.2903 380.25 43.2198 379.061 44.1493C376.22 46.3402 373.314 48.5311 370.473 50.722C368.425 52.249 366.443 53.8424 364.395 55.3694C362.612 56.6972 360.894 58.2242 358.582 58.4234C356.534 58.6226 354.486 57.9587 352.703 56.9628C351.117 56.0333 349.532 54.9711 347.814 54.3072C346.096 53.7096 344.247 53.3777 342.397 53.3777C333.016 53.3777 326.873 60.7471 326.873 71.1705V71.5025C326.873 83.1874 333.413 90.2248 342.199 90.2248C344.643 90.2248 347.219 89.9593 349.466 88.7642C351.513 87.702 353.495 86.175 355.807 85.5774C356.336 85.4447 356.93 85.3783 357.459 85.3119C359.044 85.3119 360.696 85.7766 362.083 86.5069C364.131 87.5692 365.849 89.0962 367.698 90.4904C369.614 91.951 371.53 93.4116 373.38 94.8722C376.485 97.2623 379.589 99.6524 382.628 102.042C382.826 102.175 382.893 102.242 383.025 102.308Z" fill="white"/>
</g>
<mask id="mask1_410_13519" style="mask-type:luminance" maskUnits="userSpaceOnUse" x="0" y="0" width="793" height="144">
<path d="M793 0.595703H0V144.001H793V0.595703Z" fill="white"/>
</mask>
<g mask="url(#mask1_410_13519)">
<path d="M468.31 119.435H491.101V96.5303H468.31V119.435ZM468.31 -58.095H491.101V-81H468.31V-58.095ZM448.161 24.031V79.003C448.161 85.4429 443.206 89.2936 437.723 89.2936C431.976 89.2936 427.682 85.4429 427.682 79.003V23.9646H384.742V90.6878C384.742 109.543 397.03 121.626 417.839 121.626C432.174 121.626 441.753 114.655 448.095 107.286V119.369H464.61V92.8123H491.035V24.031H448.161Z" fill="white"/>
</g>
<mask id="mask2_410_13519" style="mask-type:luminance" maskUnits="userSpaceOnUse" x="0" y="0" width="793" height="144">
<path d="M793 0.595703H0V144.001H793V0.595703Z" fill="white"/>
</mask>
<g mask="url(#mask2_410_13519)">
<path d="M616.288 52.5137V82.5889C616.288 88.1658 619.392 90.4231 625.47 90.4231C629.169 90.4231 633.067 89.56 637.361 87.9666V116.448C630.623 119.436 620.78 121.494 610.54 121.494C587.022 121.494 573.546 112.199 573.546 91.2862V52.5137H548.376V82.5889C548.376 88.1658 551.481 90.4231 557.559 90.4231C561.258 90.4231 565.09 89.56 569.45 87.9666V116.448C562.712 119.436 552.869 121.494 542.629 121.494C519.111 121.494 505.635 112.199 505.635 91.2862V52.5137H494.801V24.0318H505.635V0.595703H548.376V24.0318H573.546V0.595703H616.288L605.255 29.8079L637.824 23.9654V52.4473H616.288V52.5137Z" fill="white"/>
</g>
<path d="M685.652 0.595703H642.91V119.436H685.652V0.595703Z" fill="white"/>
<mask id="mask3_410_13519" style="mask-type:luminance" maskUnits="userSpaceOnUse" x="0" y="0" width="793" height="144">
<path d="M793 0.595703H0V144.001H793V0.595703Z" fill="white"/>
</mask>
<g mask="url(#mask3_410_13519)">
<path d="M737.443 62.2741C736.056 62.8052 734.932 63.8675 733.743 64.7969C731.497 66.4567 728.26 66.8551 725.816 65.4608C724.231 64.5978 723.041 63.0708 722.117 61.4774C720.795 59.0209 720.003 56.3652 719.606 53.6432C719.276 50.9212 719.21 47.8672 719.937 45.2115C720.135 44.5476 720.399 43.8173 720.928 43.3526C721.258 43.0206 721.852 42.8214 722.183 43.087C722.381 43.2862 722.447 43.5517 722.447 43.7509C722.579 44.7468 722.645 45.809 722.711 46.8713C722.909 49.1286 722.909 51.3195 723.24 53.5768C723.504 55.6349 724.098 57.8258 725.089 59.6848C725.618 60.7471 726.411 61.6101 727.402 62.2741C727.732 62.4732 728.128 62.6724 728.591 62.7388C729.78 62.938 730.837 62.0085 731.695 61.3446C733.149 60.2159 734.668 59.0873 736.254 58.1578C737.839 57.2947 739.821 56.9628 741.605 57.0955C743.124 57.2283 744.644 57.6931 746.031 58.4898C747.418 59.2865 748.805 60.2159 750.259 60.9462C750.391 61.0126 750.523 61.079 750.655 61.1454C752.307 61.8093 753.958 61.7429 755.544 60.8798C756.931 60.0831 758.252 58.9545 759.045 57.6267C760.234 55.7677 760.829 53.5768 761.225 51.4523C761.687 48.9958 761.952 46.5393 762.084 44.0828C762.348 44.1492 762.414 44.4148 762.48 44.6804C762.942 47.0705 762.876 49.6597 762.744 52.1162C762.678 54.4399 762.216 56.83 761.027 58.8881C759.706 61.1454 757.658 63.0044 755.147 63.8011C751.976 64.7969 748.145 65.1289 745.106 63.7347C743.917 63.2035 742.86 62.4068 741.539 62.0749C740.151 61.7429 738.698 61.7429 737.443 62.2741ZM754.024 93.4779C752.373 93.7435 750.589 93.9427 748.805 93.9427C748.211 93.9427 747.682 93.9427 747.088 93.8763C739.557 93.478 740.019 82.0587 747.55 82.0587H783.752C786.262 82.0587 788.574 80.9964 790.292 79.3366C791.943 77.6768 793 75.3531 793 72.7639C793 42.8878 775.626 21.7754 741.274 21.7754C710.82 21.7754 689.086 41.6928 689.086 70.8385V73.0958C689.086 103.304 711.415 121.694 744.908 121.694C765.321 121.694 779.458 114.856 790.49 105.296L789.631 104.433C780.383 94.9386 767.038 91.2206 754.024 93.4779Z" fill="white"/>
</g>
<mask id="mask4_410_13519" style="mask-type:luminance" maskUnits="userSpaceOnUse" x="0" y="0" width="793" height="144">
<path d="M793 0.595703H0V144.001H793V0.595703Z" fill="white"/>
</mask>
<g mask="url(#mask4_410_13519)">
<path d="M445.252 79.2698C445.252 83.3197 441.949 86.6392 437.919 86.6392C433.889 86.6392 430.586 83.3197 430.586 79.2698C430.586 75.2199 433.889 71.9004 437.919 71.9004C441.949 71.9004 445.252 75.1536 445.252 79.2698Z" fill="white"/>
</g>
<mask id="mask5_410_13519" style="mask-type:luminance" maskUnits="userSpaceOnUse" x="0" y="0" width="793" height="144">
<path d="M793 0.595703H0V144.001H793V0.595703Z" fill="white"/>
</mask>
<g mask="url(#mask5_410_13519)">
<path d="M61.2388 33.1934L45.3181 83.2524L27.0191 33.1934H0L34.2858 108.946L31.5112 114.589C28.5385 120.365 21.1396 124.614 13.5426 124.614L24.9712 144C36.7301 143.536 46.2429 135.901 51.5939 122.689L87.9276 33.1934H61.2388Z" fill="white"/>
</g>
<mask id="mask6_410_13519" style="mask-type:luminance" maskUnits="userSpaceOnUse" x="0" y="0" width="793" height="144">
<path d="M793 0.595703H0V144.001H793V0.595703Z" fill="white"/>
</mask>
<g mask="url(#mask6_410_13519)">
<path d="M120.759 92.3476C109.661 92.3476 101.733 83.9159 101.733 72.1646C101.733 60.4134 109.661 51.9817 120.759 51.9817C131.857 51.9817 139.785 60.4134 139.785 72.1646C139.785 83.9159 131.791 92.3476 120.759 92.3476ZM120.759 31.334C95.3253 31.334 76.8281 48.5293 76.8281 72.3638C76.8281 96.1319 95.3253 113.394 120.759 113.394C146.193 113.394 164.69 96.1982 164.69 72.3638C164.69 48.5293 146.193 31.334 120.759 31.334Z" fill="white"/>
</g>
<mask id="mask7_410_13519" style="mask-type:luminance" maskUnits="userSpaceOnUse" x="0" y="0" width="793" height="144">
<path d="M793 0.595703H0V144.001H793V0.595703Z" fill="white"/>
</mask>
<g mask="url(#mask7_410_13519)">
<path d="M244.824 95.8003V33.1934H220.58V73.8912C220.58 84.2482 213.643 91.7505 204.329 91.7505C195.873 91.7505 189.795 85.5097 189.795 76.4141V33.1934H165.551V81.3934C165.551 99.8502 178.499 113.328 196.005 113.328C206.905 113.328 216.748 108.016 221.24 100.049L226.063 111.469H245.089L244.824 95.8003Z" fill="white"/>
</g>
<mask id="mask8_410_13519" style="mask-type:luminance" maskUnits="userSpaceOnUse" x="0" y="0" width="793" height="144">
<path d="M793 0.595703H0V144.001H793V0.595703Z" fill="white"/>
</mask>
<g mask="url(#mask8_410_13519)">
<path d="M291.132 31.334C281.817 31.334 274.55 36.1805 270.19 44.4795L265.5 33.1929H246.805V111.468H271.049V72.0318C271.049 63.6665 276.532 57.6249 284.79 56.1643C286.97 47.2015 291.858 39.7657 299.257 33.2593C297.077 32.3963 293.708 31.334 291.132 31.334Z" fill="white"/>
</g>
</svg>
