<svg width="29" height="22" viewBox="0 0 29 22" fill="none" xmlns="http://www.w3.org/2000/svg">
<path d="M29 2.6096C27.9335 3.05059 26.7879 3.34856 25.5835 3.48324C26.8262 2.78933 27.7559 1.69719 28.1992 0.410618C27.0316 1.05779 25.7538 1.51332 24.4213 1.75742C23.5252 0.864557 22.3382 0.272751 21.0448 0.0738863C19.7513 -0.124978 18.4237 0.0802241 17.268 0.657635C16.1123 1.23505 15.1932 2.15236 14.6535 3.26716C14.1137 4.38195 13.9834 5.63186 14.2829 6.82283C11.9171 6.71198 9.60276 6.13817 7.49002 5.13862C5.37728 4.13907 3.51336 2.73613 2.01925 1.02085C1.50837 1.84324 1.21461 2.79672 1.21461 3.81219C1.21404 4.72634 1.45528 5.62649 1.91692 6.43277C2.37855 7.23906 3.04632 7.92654 3.86096 8.43423C2.91619 8.40618 1.99226 8.16795 1.16608 7.73937V7.81088C1.16598 9.09302 1.64124 10.3357 2.5112 11.3281C3.38116 12.3204 4.59225 13.0014 5.93896 13.2553C5.06253 13.4767 4.14365 13.5093 3.25174 13.3507C3.6317 14.4539 4.37183 15.4186 5.36852 16.1097C6.36521 16.8009 7.56855 17.1839 8.8101 17.2051C6.70251 18.7491 4.09965 19.5866 1.42024 19.5829C0.945611 19.583 0.471383 19.5572 0 19.5054C2.71976 21.1373 5.88575 22.0034 9.11918 22C20.0647 22 26.0484 13.5402 26.0484 6.20306C26.0484 5.96469 26.042 5.72394 26.0305 5.48556C27.1944 4.7001 28.1991 3.72744 28.9974 2.61318L29 2.6096Z" fill="#F8F8F8"/>
</svg>
